<svg xmlns="http://www.w3.org/2000/svg" width="256" height="256" viewBox="0 0 256 256" fill="none">
  <rect x="8" y="8" width="240" height="240" rx="56" fill="#111827" />
  <path d="M64 78C64 63.64 75.64 52 90 52H166C180.36 52 192 63.64 192 78V142C192 156.36 180.36 168 166 168H120L84 198V168H90C75.64 168 64 156.36 64 142V78Z" fill="white" fill-opacity="0.14"/>
  <path d="M64 78C64 63.64 75.64 52 90 52H166C180.36 52 192 63.64 192 78V142C192 156.36 180.36 168 166 168H120L84 198V168H90C75.64 168 64 156.36 64 142V78Z" stroke="white" stroke-opacity="0.96" stroke-width="10" stroke-linejoin="round"/>
  <path d="M102 86V136H150" stroke="white" stroke-width="18" stroke-linecap="round" stroke-linejoin="round"/>
  <circle cx="168" cy="84" r="11" fill="#F59E0B" fill-opacity="0.95"/>
</svg>
