<svg xmlns="http://www.w3.org/2000/svg" width="256" height="256" viewBox="0 0 256 256" fill="none">
  <rect x="2" y="2" width="252" height="252" rx="58" fill="#111827" />
  <path d="M52 70C52 52.33 66.33 38 84 38H172C189.67 38 204 52.33 204 70V150C204 167.67 189.67 182 172 182H118L74 218V182H84C66.33 182 52 167.67 52 150V70Z" fill="white" fill-opacity="0.14"/>
  <path d="M52 70C52 52.33 66.33 38 84 38H172C189.67 38 204 52.33 204 70V150C204 167.67 189.67 182 172 182H118L74 218V182H84C66.33 182 52 167.67 52 150V70Z" stroke="white" stroke-opacity="0.98" stroke-width="12" stroke-linejoin="round"/>
  <path d="M94 78V140H156" stroke="white" stroke-width="22" stroke-linecap="round" stroke-linejoin="round"/>
  <circle cx="176" cy="76" r="13" fill="#F59E0B" fill-opacity="0.98"/>
</svg>
